<mxfile host="app.diagrams.net" agent="Mozilla/5.0 (Windows NT 10.0; Win64; x64; rv:128.0) Gecko/20100101 Firefox/128.0" version="24.7.7">
  <diagram name="Page-1" id="nEokDzsJs1XwXtS5uEI3">
    <mxGraphModel dx="1434" dy="774" grid="1" gridSize="10" guides="1" tooltips="1" connect="1" arrows="1" fold="1" page="1" pageScale="1" pageWidth="1169" pageHeight="827" math="0" shadow="0">
      <root>
        <mxCell id="0" />
        <mxCell id="1" parent="0" />
        <mxCell id="WT5hDnRrG1FPfyMFsSfL-1" value="Client" style="shape=umlActor;verticalLabelPosition=bottom;verticalAlign=top;html=1;outlineConnect=0;" vertex="1" parent="1">
          <mxGeometry x="60" y="291" width="30" height="60" as="geometry" />
        </mxCell>
        <mxCell id="WT5hDnRrG1FPfyMFsSfL-2" value="OPERATEuR MAINTENANCE" style="shape=umlActor;verticalLabelPosition=bottom;verticalAlign=top;html=1;outlineConnect=0;" vertex="1" parent="1">
          <mxGeometry x="1080" y="310" width="30" height="50" as="geometry" />
        </mxCell>
        <mxCell id="WT5hDnRrG1FPfyMFsSfL-3" value="DAB" style="ellipse;whiteSpace=wrap;html=1;" vertex="1" parent="1">
          <mxGeometry x="600" y="250" width="120" height="80" as="geometry" />
        </mxCell>
        <mxCell id="WT5hDnRrG1FPfyMFsSfL-6" value="carte visa" style="ellipse;whiteSpace=wrap;html=1;" vertex="1" parent="1">
          <mxGeometry x="200" y="170" width="100" height="60" as="geometry" />
        </mxCell>
        <mxCell id="WT5hDnRrG1FPfyMFsSfL-12" value="" style="endArrow=classic;html=1;rounded=0;exitX=0;exitY=0.5;exitDx=0;exitDy=0;" edge="1" parent="1" source="WT5hDnRrG1FPfyMFsSfL-6">
          <mxGeometry width="50" height="50" relative="1" as="geometry">
            <mxPoint x="230" y="220" as="sourcePoint" />
            <mxPoint x="90" y="295" as="targetPoint" />
          </mxGeometry>
        </mxCell>
        <mxCell id="WT5hDnRrG1FPfyMFsSfL-13" value="" style="endArrow=classic;html=1;rounded=0;exitX=0;exitY=0.5;exitDx=0;exitDy=0;entryX=1;entryY=0.5;entryDx=0;entryDy=0;" edge="1" parent="1" source="WT5hDnRrG1FPfyMFsSfL-3" target="WT5hDnRrG1FPfyMFsSfL-24">
          <mxGeometry width="50" height="50" relative="1" as="geometry">
            <mxPoint x="510" y="270" as="sourcePoint" />
            <mxPoint x="560" y="220" as="targetPoint" />
          </mxGeometry>
        </mxCell>
        <mxCell id="WT5hDnRrG1FPfyMFsSfL-14" value="&amp;nbsp;dépot d&#39;argent" style="ellipse;whiteSpace=wrap;html=1;" vertex="1" parent="1">
          <mxGeometry x="430" y="410" width="120" height="80" as="geometry" />
        </mxCell>
        <mxCell id="WT5hDnRrG1FPfyMFsSfL-16" value="&lt;div&gt;CB Avallée&lt;/div&gt;&lt;div&gt;&lt;br&gt;&lt;/div&gt;" style="ellipse;whiteSpace=wrap;html=1;" vertex="1" parent="1">
          <mxGeometry x="610" y="100" width="120" height="80" as="geometry" />
        </mxCell>
        <mxCell id="WT5hDnRrG1FPfyMFsSfL-20" value="" style="endArrow=none;html=1;rounded=0;exitX=0.5;exitY=0;exitDx=0;exitDy=0;entryX=0.4;entryY=0.988;entryDx=0;entryDy=0;entryPerimeter=0;" edge="1" parent="1" source="WT5hDnRrG1FPfyMFsSfL-3" target="WT5hDnRrG1FPfyMFsSfL-16">
          <mxGeometry width="50" height="50" relative="1" as="geometry">
            <mxPoint x="610" y="240" as="sourcePoint" />
            <mxPoint x="613.34" y="179.94" as="targetPoint" />
          </mxGeometry>
        </mxCell>
        <mxCell id="WT5hDnRrG1FPfyMFsSfL-22" value="Dépôt de chèque " style="ellipse;whiteSpace=wrap;html=1;" vertex="1" parent="1">
          <mxGeometry x="420" y="610" width="120" height="80" as="geometry" />
        </mxCell>
        <mxCell id="WT5hDnRrG1FPfyMFsSfL-23" value="" style="endArrow=none;html=1;rounded=0;entryX=0.05;entryY=0.225;entryDx=0;entryDy=0;entryPerimeter=0;" edge="1" parent="1" target="WT5hDnRrG1FPfyMFsSfL-22">
          <mxGeometry width="50" height="50" relative="1" as="geometry">
            <mxPoint x="380" y="312" as="sourcePoint" />
            <mxPoint x="360" y="420" as="targetPoint" />
            <Array as="points">
              <mxPoint x="380" y="400" />
            </Array>
          </mxGeometry>
        </mxCell>
        <mxCell id="WT5hDnRrG1FPfyMFsSfL-35" value="&amp;lt;&amp;lt;incloud&amp;nbsp; &amp;gt;&amp;gt;" style="edgeLabel;html=1;align=center;verticalAlign=middle;resizable=0;points=[];" vertex="1" connectable="0" parent="WT5hDnRrG1FPfyMFsSfL-23">
          <mxGeometry x="-0.3324" y="4" relative="1" as="geometry">
            <mxPoint as="offset" />
          </mxGeometry>
        </mxCell>
        <mxCell id="WT5hDnRrG1FPfyMFsSfL-24" value="authentification" style="ellipse;whiteSpace=wrap;html=1;" vertex="1" parent="1">
          <mxGeometry x="350" y="190" width="120" height="80" as="geometry" />
        </mxCell>
        <mxCell id="WT5hDnRrG1FPfyMFsSfL-26" value="" style="endArrow=none;html=1;rounded=0;exitX=1;exitY=0.5;exitDx=0;exitDy=0;" edge="1" parent="1" source="WT5hDnRrG1FPfyMFsSfL-6" target="WT5hDnRrG1FPfyMFsSfL-24">
          <mxGeometry width="50" height="50" relative="1" as="geometry">
            <mxPoint x="300" y="310" as="sourcePoint" />
            <mxPoint x="350" y="260" as="targetPoint" />
            <Array as="points">
              <mxPoint x="350" y="210" />
            </Array>
          </mxGeometry>
        </mxCell>
        <mxCell id="WT5hDnRrG1FPfyMFsSfL-28" value="colectre l&#39;argent" style="ellipse;whiteSpace=wrap;html=1;" vertex="1" parent="1">
          <mxGeometry x="759" y="260" width="120" height="80" as="geometry" />
        </mxCell>
        <mxCell id="WT5hDnRrG1FPfyMFsSfL-31" value="RECHARGE L&#39;ARGENT" style="ellipse;whiteSpace=wrap;html=1;" vertex="1" parent="1">
          <mxGeometry x="750" y="380" width="120" height="80" as="geometry" />
        </mxCell>
        <mxCell id="WT5hDnRrG1FPfyMFsSfL-33" value="" style="endArrow=none;html=1;rounded=0;exitX=1;exitY=0.375;exitDx=0;exitDy=0;exitPerimeter=0;entryX=0.008;entryY=0.65;entryDx=0;entryDy=0;entryPerimeter=0;" edge="1" parent="1" source="WT5hDnRrG1FPfyMFsSfL-3" target="WT5hDnRrG1FPfyMFsSfL-28">
          <mxGeometry width="50" height="50" relative="1" as="geometry">
            <mxPoint x="700" y="350" as="sourcePoint" />
            <mxPoint x="750" y="300" as="targetPoint" />
          </mxGeometry>
        </mxCell>
        <mxCell id="WT5hDnRrG1FPfyMFsSfL-34" value="" style="endArrow=none;html=1;rounded=0;entryX=0.95;entryY=0.75;entryDx=0;entryDy=0;entryPerimeter=0;" edge="1" parent="1" source="WT5hDnRrG1FPfyMFsSfL-31" target="WT5hDnRrG1FPfyMFsSfL-3">
          <mxGeometry width="50" height="50" relative="1" as="geometry">
            <mxPoint x="708.2893218813452" y="440" as="sourcePoint" />
            <mxPoint x="708.2893218813452" y="390" as="targetPoint" />
          </mxGeometry>
        </mxCell>
        <mxCell id="WT5hDnRrG1FPfyMFsSfL-36" value="&amp;lt;&amp;lt;incloud&amp;nbsp; &amp;gt;&amp;gt;" style="edgeLabel;html=1;align=center;verticalAlign=middle;resizable=0;points=[];" vertex="1" connectable="0" parent="1">
          <mxGeometry x="424.7010389259624" y="397.2065168131537" as="geometry">
            <mxPoint x="35" y="-41" as="offset" />
          </mxGeometry>
        </mxCell>
        <mxCell id="WT5hDnRrG1FPfyMFsSfL-37" value="&amp;lt;&amp;lt;incloud&amp;nbsp; &amp;gt;&amp;gt;" style="edgeLabel;html=1;align=center;verticalAlign=middle;resizable=0;points=[];" vertex="1" connectable="0" parent="1">
          <mxGeometry x="434.7010389259624" y="359.99651681315373" as="geometry">
            <mxPoint x="93" y="-109" as="offset" />
          </mxGeometry>
        </mxCell>
        <mxCell id="WT5hDnRrG1FPfyMFsSfL-39" value="porteur carte" style="shape=umlActor;verticalLabelPosition=bottom;verticalAlign=top;html=1;outlineConnect=0;" vertex="1" parent="1">
          <mxGeometry x="70" y="110" width="30" height="60" as="geometry" />
        </mxCell>
        <mxCell id="WT5hDnRrG1FPfyMFsSfL-42" value="carte de banque" style="ellipse;whiteSpace=wrap;html=1;" vertex="1" parent="1">
          <mxGeometry x="190" y="280" width="100" height="60" as="geometry" />
        </mxCell>
        <mxCell id="WT5hDnRrG1FPfyMFsSfL-43" value="" style="endArrow=classic;html=1;rounded=0;exitX=0.05;exitY=0.617;exitDx=0;exitDy=0;exitPerimeter=0;" edge="1" parent="1" source="WT5hDnRrG1FPfyMFsSfL-42">
          <mxGeometry width="50" height="50" relative="1" as="geometry">
            <mxPoint x="200" y="220" as="sourcePoint" />
            <mxPoint x="100" y="330" as="targetPoint" />
            <Array as="points" />
          </mxGeometry>
        </mxCell>
        <mxCell id="WT5hDnRrG1FPfyMFsSfL-45" value="" style="endArrow=classic;html=1;rounded=0;exitX=0.97;exitY=0.733;exitDx=0;exitDy=0;exitPerimeter=0;" edge="1" parent="1" source="WT5hDnRrG1FPfyMFsSfL-42" target="WT5hDnRrG1FPfyMFsSfL-24">
          <mxGeometry width="50" height="50" relative="1" as="geometry">
            <mxPoint x="195" y="307" as="sourcePoint" />
            <mxPoint x="110" y="315" as="targetPoint" />
          </mxGeometry>
        </mxCell>
        <mxCell id="WT5hDnRrG1FPfyMFsSfL-47" value="" style="endArrow=classic;html=1;rounded=0;entryX=1;entryY=0.625;entryDx=0;entryDy=0;entryPerimeter=0;" edge="1" parent="1" target="WT5hDnRrG1FPfyMFsSfL-16">
          <mxGeometry width="50" height="50" relative="1" as="geometry">
            <mxPoint x="1030" y="330" as="sourcePoint" />
            <mxPoint x="1000" y="160" as="targetPoint" />
          </mxGeometry>
        </mxCell>
        <mxCell id="WT5hDnRrG1FPfyMFsSfL-48" value="" style="endArrow=classic;html=1;rounded=0;" edge="1" parent="1">
          <mxGeometry width="50" height="50" relative="1" as="geometry">
            <mxPoint x="1010" y="356" as="sourcePoint" />
            <mxPoint x="880" y="300" as="targetPoint" />
            <Array as="points">
              <mxPoint x="1000" y="356" />
            </Array>
          </mxGeometry>
        </mxCell>
        <mxCell id="WT5hDnRrG1FPfyMFsSfL-49" value="consultation " style="ellipse;whiteSpace=wrap;html=1;" vertex="1" parent="1">
          <mxGeometry x="434.7" y="500" width="120" height="80" as="geometry" />
        </mxCell>
        <mxCell id="WT5hDnRrG1FPfyMFsSfL-52" value="" style="endArrow=classic;html=1;rounded=0;" edge="1" parent="1" source="WT5hDnRrG1FPfyMFsSfL-6">
          <mxGeometry width="50" height="50" relative="1" as="geometry">
            <mxPoint x="200" y="130" as="sourcePoint" />
            <mxPoint x="120" y="150" as="targetPoint" />
          </mxGeometry>
        </mxCell>
        <mxCell id="WT5hDnRrG1FPfyMFsSfL-53" value="" style="endArrow=classic;html=1;rounded=0;" edge="1" parent="1">
          <mxGeometry width="50" height="50" relative="1" as="geometry">
            <mxPoint x="1010" y="380" as="sourcePoint" />
            <mxPoint x="880" y="310" as="targetPoint" />
            <Array as="points">
              <mxPoint x="1010" y="370" />
            </Array>
          </mxGeometry>
        </mxCell>
        <mxCell id="WT5hDnRrG1FPfyMFsSfL-54" value="" style="endArrow=classic;html=1;rounded=0;" edge="1" parent="1">
          <mxGeometry width="50" height="50" relative="1" as="geometry">
            <mxPoint x="1000" y="390" as="sourcePoint" />
            <mxPoint x="860" y="410" as="targetPoint" />
            <Array as="points">
              <mxPoint x="1000" y="380" />
            </Array>
          </mxGeometry>
        </mxCell>
        <mxCell id="WT5hDnRrG1FPfyMFsSfL-55" value="" style="endArrow=classic;html=1;rounded=0;entryX=0.75;entryY=0.95;entryDx=0;entryDy=0;entryPerimeter=0;" edge="1" parent="1" target="WT5hDnRrG1FPfyMFsSfL-24">
          <mxGeometry width="50" height="50" relative="1" as="geometry">
            <mxPoint x="470" y="400" as="sourcePoint" />
            <mxPoint x="480" y="240" as="targetPoint" />
            <Array as="points">
              <mxPoint x="470" y="380" />
            </Array>
          </mxGeometry>
        </mxCell>
        <mxCell id="WT5hDnRrG1FPfyMFsSfL-56" value="" style="endArrow=classic;html=1;rounded=0;" edge="1" parent="1">
          <mxGeometry width="50" height="50" relative="1" as="geometry">
            <mxPoint x="440" y="440" as="sourcePoint" />
            <mxPoint x="400" y="276" as="targetPoint" />
            <Array as="points">
              <mxPoint x="430" y="420" />
              <mxPoint x="440" y="440" />
            </Array>
          </mxGeometry>
        </mxCell>
      </root>
    </mxGraphModel>
  </diagram>
</mxfile>
